<svg width="25" height="25" viewBox="0 0 25 25" fill="none" xmlns="http://www.w3.org/2000/svg">
<path d="M20.8333 16.6667C20.0337 16.6698 19.2658 16.9792 18.6874 17.5313L9.46867 12.5L18.6874 7.46878C19.7659 8.48748 21.412 8.60748 22.6269 7.75596C23.8417 6.90444 24.2904 5.31614 23.7008 3.95482C23.1111 2.5935 21.6455 1.83441 20.1934 2.13818C18.7413 2.44194 17.7028 3.72482 17.7083 5.20836C17.698 5.34359 17.698 5.47939 17.7083 5.61461L7.91658 10.9688C7.366 9.98924 6.33191 9.38072 5.20825 9.37503C3.48236 9.37503 2.08325 10.7741 2.08325 12.5C2.08325 14.2259 3.48236 15.625 5.20825 15.625C6.33191 15.6193 7.366 15.0108 7.91658 14.0313L17.7083 19.3854C17.698 19.5207 17.698 19.6565 17.7083 19.7917C17.7083 21.5176 19.1074 22.9167 20.8333 22.9167C22.5591 22.9167 23.9583 21.5176 23.9583 19.7917C23.9583 18.0658 22.5591 16.6667 20.8333 16.6667Z" fill="white"/>
</svg>
